<svg id="visual" viewBox="0 0 550 900" width="550" height="900" xmlns="http://www.w3.org/2000/svg" xmlns:xlink="http://www.w3.org/1999/xlink" version="1.1"><rect x="0" y="0" width="550" height="900" fill="#f2f3f3"></rect><g transform="translate(298.13845567628715 475.13083212145546)"><path d="M128.1 -194.9C163.2 -150.7 187.2 -109.6 201.4 -65.5C215.6 -21.4 220 25.8 201.7 60.4C183.3 95 142.2 117.1 104.8 133.6C67.4 150.1 33.7 161 -16.8 184.1C-67.4 207.3 -134.7 242.7 -172.1 226.2C-209.5 209.7 -217 141.3 -232.6 79C-248.2 16.6 -272 -39.8 -253.1 -77.4C-234.2 -115 -172.7 -134 -123.4 -173.6C-74.1 -213.3 -37 -273.6 4.7 -280.1C46.4 -286.6 92.9 -239.2 128.1 -194.9" fill="#e7e3e5"></path></g></svg>