<svg id="visual" viewBox="0 0 960 540" width="960" height="540" xmlns="http://www.w3.org/2000/svg" xmlns:xlink="http://www.w3.org/1999/xlink" version="1.1"><rect x="0" y="0" width="960" height="540" fill="#f2f3f3"></rect><g transform="translate(474.90157369843695 289.3687231664178)"><path d="M164.7 -212C208.3 -195 234.9 -140 253.1 -82.6C271.4 -25.1 281.2 34.7 261 81.1C240.8 127.5 190.7 160.4 142.2 172.8C93.7 185.2 46.8 177 1.2 175.3C-44.5 173.7 -89 178.7 -118.1 160C-147.3 141.4 -161.1 99.1 -192.4 51.1C-223.7 3.1 -272.3 -50.6 -260.1 -83.4C-247.9 -116.2 -174.8 -128.1 -121.3 -141.9C-67.8 -155.6 -33.9 -171.3 13.3 -189.7C60.5 -208 121.1 -229 164.7 -212" fill="#e7e3e5"></path></g></svg>