<svg id="visual" viewBox="0 0 600 800" width="600" height="800" xmlns="http://www.w3.org/2000/svg" xmlns:xlink="http://www.w3.org/1999/xlink" version="1.1"><rect x="0" y="0" width="600" height="800" fill="#fafafa"></rect><defs><linearGradient id="grad1_0" x1="0%" y1="0%" x2="100%" y2="100%"><stop offset="30%" stop-color="#fafafa" stop-opacity="1"></stop><stop offset="70%" stop-color="#fafafa" stop-opacity="1"></stop></linearGradient></defs><defs><linearGradient id="grad2_0" x1="0%" y1="0%" x2="100%" y2="100%"><stop offset="30%" stop-color="#fafafa" stop-opacity="1"></stop><stop offset="70%" stop-color="#fafafa" stop-opacity="1"></stop></linearGradient></defs><g transform="translate(600, 0)"><path d="M0 450C-45 414.5 -90 379 -150.8 364C-211.6 349.1 -288.3 354.7 -318.2 318.2C-348.1 281.7 -331.4 203.2 -345.5 143.1C-359.7 83.1 -404.9 41.5 -450 0L0 0Z" fill="#f3f3f3"></path></g><g transform="translate(0, 800)"><path d="M0 -450C57.4 -431 114.9 -412 158 -381.6C201.2 -351.2 230.1 -309.4 275.8 -275.8C321.4 -242.2 383.9 -216.8 415.7 -172.2C447.6 -127.6 448.8 -63.8 450 0L0 0Z" fill="#f3f3f3"></path></g></svg>