<svg id="visual" viewBox="0 0 600 800" width="600" height="800" xmlns="http://www.w3.org/2000/svg" xmlns:xlink="http://www.w3.org/1999/xlink" version="1.1"><path d="M0 105L6.3 99.7C12.7 94.3 25.3 83.7 37.8 83.7C50.3 83.7 62.7 94.3 75.2 99.7C87.7 105 100.3 105 112.8 103.7C125.3 102.3 137.7 99.7 150.2 91.7C162.7 83.7 175.3 70.3 187.8 71.7C200.3 73 212.7 89 225.2 97C237.7 105 250.3 105 262.8 97C275.3 89 287.7 73 300.2 66.3C312.7 59.7 325.3 62.3 337.8 69C350.3 75.7 362.7 86.3 375.2 89C387.7 91.7 400.3 86.3 412.8 85C425.3 83.7 437.7 86.3 450.2 82.3C462.7 78.3 475.3 67.7 487.8 67.7C500.3 67.7 512.7 78.3 525.2 77C537.7 75.7 550.3 62.3 562.8 58.3C575.3 54.3 587.7 59.7 593.8 62.3L600 65L600 0L593.8 0C587.7 0 575.3 0 562.8 0C550.3 0 537.7 0 525.2 0C512.7 0 500.3 0 487.8 0C475.3 0 462.7 0 450.2 0C437.7 0 425.3 0 412.8 0C400.3 0 387.7 0 375.2 0C362.7 0 350.3 0 337.8 0C325.3 0 312.7 0 300.2 0C287.7 0 275.3 0 262.8 0C250.3 0 237.7 0 225.2 0C212.7 0 200.3 0 187.8 0C175.3 0 162.7 0 150.2 0C137.7 0 125.3 0 112.8 0C100.3 0 87.7 0 75.2 0C62.7 0 50.3 0 37.8 0C25.3 0 12.7 0 6.3 0L0 0Z" fill="#dce1eb"></path><path d="M0 265L6.3 259.7C12.7 254.3 25.3 243.7 37.8 231.7C50.3 219.7 62.7 206.3 75.2 210.3C87.7 214.3 100.3 235.7 112.8 243.7C125.3 251.7 137.7 246.3 150.2 241C162.7 235.7 175.3 230.3 187.8 219.7C200.3 209 212.7 193 225.2 187.7C237.7 182.3 250.3 187.7 262.8 186.3C275.3 185 287.7 177 300.2 171.7C312.7 166.3 325.3 163.7 337.8 166.3C350.3 169 362.7 177 375.2 181C387.7 185 400.3 185 412.8 194.3C425.3 203.7 437.7 222.3 450.2 230.3C462.7 238.3 475.3 235.7 487.8 222.3C500.3 209 512.7 185 525.2 169C537.7 153 550.3 145 562.8 155.7C575.3 166.3 587.7 195.7 593.8 210.3L600 225L600 63L593.8 60.3C587.7 57.7 575.3 52.3 562.8 56.3C550.3 60.3 537.7 73.7 525.2 75C512.7 76.3 500.3 65.7 487.8 65.7C475.3 65.7 462.7 76.3 450.2 80.3C437.7 84.3 425.3 81.7 412.8 83C400.3 84.3 387.7 89.7 375.2 87C362.7 84.3 350.3 73.7 337.8 67C325.3 60.3 312.7 57.7 300.2 64.3C287.7 71 275.3 87 262.8 95C250.3 103 237.7 103 225.2 95C212.7 87 200.3 71 187.8 69.7C175.3 68.3 162.7 81.7 150.2 89.7C137.7 97.7 125.3 100.3 112.8 101.7C100.3 103 87.7 103 75.2 97.7C62.7 92.3 50.3 81.7 37.8 81.7C25.3 81.7 12.7 92.3 6.3 97.7L0 103Z" fill="#e3e7ef"></path><path d="M0 361L6.3 353C12.7 345 25.3 329 37.8 317C50.3 305 62.7 297 75.2 299.7C87.7 302.3 100.3 315.7 112.8 317C125.3 318.3 137.7 307.7 150.2 307.7C162.7 307.7 175.3 318.3 187.8 313C200.3 307.7 212.7 286.3 225.2 285C237.7 283.7 250.3 302.3 262.8 303.7C275.3 305 287.7 289 300.2 278.3C312.7 267.7 325.3 262.3 337.8 261C350.3 259.7 362.7 262.3 375.2 271.7C387.7 281 400.3 297 412.8 307.7C425.3 318.3 437.7 323.7 450.2 329C462.7 334.3 475.3 339.7 487.8 322.3C500.3 305 512.7 265 525.2 242.3C537.7 219.7 550.3 214.3 562.8 234.3C575.3 254.3 587.7 299.7 593.8 322.3L600 345L600 223L593.8 208.3C587.7 193.7 575.3 164.3 562.8 153.7C550.3 143 537.7 151 525.2 167C512.7 183 500.3 207 487.8 220.3C475.3 233.7 462.7 236.3 450.2 228.3C437.7 220.3 425.3 201.7 412.8 192.3C400.3 183 387.7 183 375.2 179C362.7 175 350.3 167 337.8 164.3C325.3 161.7 312.7 164.3 300.2 169.7C287.7 175 275.3 183 262.8 184.3C250.3 185.7 237.7 180.3 225.2 185.7C212.7 191 200.3 207 187.8 217.7C175.3 228.3 162.7 233.7 150.2 239C137.7 244.3 125.3 249.7 112.8 241.7C100.3 233.7 87.7 212.3 75.2 208.3C62.7 204.3 50.3 217.7 37.8 229.7C25.3 241.7 12.7 252.3 6.3 257.7L0 263Z" fill="#eaedf3"></path><path d="M0 409L6.3 402.3C12.7 395.7 25.3 382.3 37.8 369C50.3 355.7 62.7 342.3 75.2 345C87.7 347.7 100.3 366.3 112.8 370.3C125.3 374.3 137.7 363.7 150.2 361C162.7 358.3 175.3 363.7 187.8 358.3C200.3 353 212.7 337 225.2 335.7C237.7 334.3 250.3 347.7 262.8 349C275.3 350.3 287.7 339.7 300.2 331.7C312.7 323.7 325.3 318.3 337.8 315.7C350.3 313 362.7 313 375.2 321C387.7 329 400.3 345 412.8 358.3C425.3 371.7 437.7 382.3 450.2 386.3C462.7 390.3 475.3 387.7 487.8 371.7C500.3 355.7 512.7 326.3 525.2 306.3C537.7 286.3 550.3 275.7 562.8 291.7C575.3 307.7 587.7 350.3 593.8 371.7L600 393L600 343L593.8 320.3C587.7 297.7 575.3 252.3 562.8 232.3C550.3 212.3 537.7 217.7 525.2 240.3C512.7 263 500.3 303 487.8 320.3C475.3 337.7 462.7 332.3 450.2 327C437.7 321.7 425.3 316.3 412.8 305.7C400.3 295 387.7 279 375.2 269.7C362.7 260.3 350.3 257.7 337.8 259C325.3 260.3 312.7 265.7 300.2 276.3C287.7 287 275.3 303 262.8 301.7C250.3 300.3 237.7 281.7 225.2 283C212.7 284.3 200.3 305.7 187.8 311C175.3 316.3 162.7 305.7 150.2 305.7C137.7 305.7 125.3 316.3 112.8 315C100.3 313.7 87.7 300.3 75.2 297.7C62.7 295 50.3 303 37.8 315C25.3 327 12.7 343 6.3 351L0 359Z" fill="#f1f3f7"></path><path d="M0 625L6.3 614.3C12.7 603.7 25.3 582.3 37.8 574.3C50.3 566.3 62.7 571.7 75.2 578.3C87.7 585 100.3 593 112.8 593C125.3 593 137.7 585 150.2 578.3C162.7 571.7 175.3 566.3 187.8 559.7C200.3 553 212.7 545 225.2 534.3C237.7 523.7 250.3 510.3 262.8 511.7C275.3 513 287.7 529 300.2 543.7C312.7 558.3 325.3 571.7 337.8 581C350.3 590.3 362.7 595.7 375.2 599.7C387.7 603.7 400.3 606.3 412.8 595.7C425.3 585 437.7 561 450.2 546.3C462.7 531.7 475.3 526.3 487.8 525C500.3 523.7 512.7 526.3 525.2 531.7C537.7 537 550.3 545 562.8 558.3C575.3 571.7 587.7 590.3 593.8 599.7L600 609L600 391L593.8 369.7C587.7 348.3 575.3 305.7 562.8 289.7C550.3 273.7 537.7 284.3 525.2 304.3C512.7 324.3 500.3 353.7 487.8 369.7C475.3 385.7 462.7 388.3 450.2 384.3C437.7 380.3 425.3 369.7 412.8 356.3C400.3 343 387.7 327 375.2 319C362.7 311 350.3 311 337.8 313.7C325.3 316.3 312.7 321.7 300.2 329.7C287.7 337.7 275.3 348.3 262.8 347C250.3 345.7 237.7 332.3 225.2 333.7C212.7 335 200.3 351 187.8 356.3C175.3 361.7 162.7 356.3 150.2 359C137.7 361.7 125.3 372.3 112.8 368.3C100.3 364.3 87.7 345.7 75.2 343C62.7 340.3 50.3 353.7 37.8 367C25.3 380.3 12.7 393.7 6.3 400.3L0 407Z" fill="#f3f4f8"></path><path d="M0 673L6.3 663.7C12.7 654.3 25.3 635.7 37.8 635.7C50.3 635.7 62.7 654.3 75.2 666.3C87.7 678.3 100.3 683.7 112.8 677C125.3 670.3 137.7 651.7 150.2 638.3C162.7 625 175.3 617 187.8 615.7C200.3 614.3 212.7 619.7 225.2 610.3C237.7 601 250.3 577 262.8 579.7C275.3 582.3 287.7 611.7 300.2 629C312.7 646.3 325.3 651.7 337.8 654.3C350.3 657 362.7 657 375.2 657C387.7 657 400.3 657 412.8 649C425.3 641 437.7 625 450.2 613C462.7 601 475.3 593 487.8 594.3C500.3 595.7 512.7 606.3 525.2 609C537.7 611.7 550.3 606.3 562.8 611.7C575.3 617 587.7 633 593.8 641L600 649L600 607L593.8 597.7C587.7 588.3 575.3 569.7 562.8 556.3C550.3 543 537.7 535 525.2 529.7C512.7 524.3 500.3 521.7 487.8 523C475.3 524.3 462.7 529.7 450.2 544.3C437.7 559 425.3 583 412.8 593.7C400.3 604.3 387.7 601.7 375.2 597.7C362.7 593.7 350.3 588.3 337.8 579C325.3 569.7 312.7 556.3 300.2 541.7C287.7 527 275.3 511 262.8 509.7C250.3 508.3 237.7 521.7 225.2 532.3C212.7 543 200.3 551 187.8 557.7C175.3 564.3 162.7 569.7 150.2 576.3C137.7 583 125.3 591 112.8 591C100.3 591 87.7 583 75.2 576.3C62.7 569.7 50.3 564.3 37.8 572.3C25.3 580.3 12.7 601.7 6.3 612.3L0 623Z" fill="#f4f6f9"></path><path d="M0 801L6.3 801C12.7 801 25.3 801 37.8 801C50.3 801 62.7 801 75.2 801C87.7 801 100.3 801 112.8 801C125.3 801 137.7 801 150.2 801C162.7 801 175.3 801 187.8 801C200.3 801 212.7 801 225.2 801C237.7 801 250.3 801 262.8 801C275.3 801 287.7 801 300.2 801C312.7 801 325.3 801 337.8 801C350.3 801 362.7 801 375.2 801C387.7 801 400.3 801 412.8 801C425.3 801 437.7 801 450.2 801C462.7 801 475.3 801 487.8 801C500.3 801 512.7 801 525.2 801C537.7 801 550.3 801 562.8 801C575.3 801 587.7 801 593.8 801L600 801L600 647L593.8 639C587.7 631 575.3 615 562.8 609.7C550.3 604.3 537.7 609.7 525.2 607C512.7 604.3 500.3 593.7 487.8 592.3C475.3 591 462.7 599 450.2 611C437.7 623 425.3 639 412.8 647C400.3 655 387.7 655 375.2 655C362.7 655 350.3 655 337.8 652.3C325.3 649.7 312.7 644.3 300.2 627C287.7 609.7 275.3 580.3 262.8 577.7C250.3 575 237.7 599 225.2 608.3C212.7 617.7 200.3 612.3 187.8 613.7C175.3 615 162.7 623 150.2 636.3C137.7 649.7 125.3 668.3 112.8 675C100.3 681.7 87.7 676.3 75.2 664.3C62.7 652.3 50.3 633.7 37.8 633.7C25.3 633.7 12.7 652.3 6.3 661.7L0 671Z" fill="#f6f7fa"></path></svg>