<svg width="624" height="186" viewBox="0 0 624 186" fill="none" xmlns="http://www.w3.org/2000/svg">
<path d="M107.67 104.04C84.8005 145.577 53.935 172.463 38.7298 164.092C23.5245 155.72 29.7373 115.261 52.6064 73.7236C75.4755 32.1862 106.341 5.3 121.546 13.6715C136.752 22.0431 130.539 62.5022 107.67 104.04Z" fill="#FFDD00"/>
<path d="M127.876 133.675C85.8474 163.028 44.2152 175.997 34.8882 162.642C25.5611 149.287 52.0711 114.666 94.0998 85.3126C136.129 55.9597 177.761 42.9907 187.088 56.3455C196.415 69.7004 169.905 104.322 127.876 133.675Z" fill="#FF9900"/>
<path d="M67.8178 83.8702C70.6182 131.204 58.8418 170.407 41.5146 171.432C24.1874 172.457 7.87078 134.916 5.07045 87.5824C2.27012 40.2484 14.0465 1.0456 31.3737 0.0205036C48.7009 -1.00459 65.0175 36.5362 67.8178 83.8702Z" fill="#DF0000"/>
<path fill-rule="evenodd" clip-rule="evenodd" d="M0 175.164H622V185.164H0V175.164Z" fill="black"/>
<path fill-rule="evenodd" clip-rule="evenodd" d="M302.006 185.164H217V175.164H302.006V185.164Z" fill="#DF0000"/>
<path d="M327.8 77.7644C324.84 77.7644 322.36 76.8444 320.36 75.0044C318.44 73.0844 317.48 70.7244 317.48 67.9244C317.48 65.1244 318.44 62.8044 320.36 60.9644C322.36 59.0444 324.84 58.0844 327.8 58.0844C330.76 58.0844 333.2 59.0444 335.12 60.9644C337.12 62.8044 338.12 65.1244 338.12 67.9244C338.12 70.7244 337.12 73.0844 335.12 75.0044C333.2 76.8444 330.76 77.7644 327.8 77.7644ZM336.08 85.6844V152.164H319.28V85.6844H336.08Z" fill="black"/>
<path d="M369.478 95.2844C371.638 92.2444 374.598 89.7244 378.358 87.7244C382.198 85.6444 386.558 84.6044 391.438 84.6044C397.118 84.6044 402.238 86.0044 406.798 88.8044C411.438 91.6044 415.078 95.6044 417.718 100.804C420.438 105.924 421.798 111.884 421.798 118.684C421.798 125.484 420.438 131.524 417.718 136.804C415.078 142.004 411.438 146.044 406.798 148.924C402.238 151.804 397.118 153.244 391.438 153.244C386.558 153.244 382.238 152.244 378.478 150.244C374.798 148.244 371.798 145.724 369.478 142.684V183.844H352.678V85.6844H369.478V95.2844ZM404.638 118.684C404.638 114.684 403.798 111.244 402.118 108.364C400.518 105.404 398.358 103.164 395.638 101.644C392.998 100.124 390.118 99.3644 386.998 99.3644C383.958 99.3644 381.078 100.164 378.358 101.764C375.718 103.284 373.558 105.524 371.878 108.484C370.278 111.444 369.478 114.924 369.478 118.924C369.478 122.924 370.278 126.404 371.878 129.364C373.558 132.324 375.718 134.604 378.358 136.204C381.078 137.724 383.958 138.484 386.998 138.484C390.118 138.484 392.998 137.684 395.638 136.084C398.358 134.484 400.518 132.204 402.118 129.244C403.798 126.284 404.638 122.764 404.638 118.684Z" fill="black"/>
<path d="M429.687 118.684C429.687 111.964 431.007 106.004 433.647 100.804C436.367 95.6044 440.007 91.6044 444.567 88.8044C449.207 86.0044 454.367 84.6044 460.047 84.6044C465.007 84.6044 469.327 85.6044 473.007 87.6044C476.767 89.6044 479.767 92.1244 482.007 95.1644V85.6844H498.927V152.164H482.007V142.444C479.847 145.564 476.847 148.164 473.007 150.244C469.247 152.244 464.887 153.244 459.927 153.244C454.327 153.244 449.207 151.804 444.567 148.924C440.007 146.044 436.367 142.004 433.647 136.804C431.007 131.524 429.687 125.484 429.687 118.684ZM482.007 118.924C482.007 114.844 481.207 111.364 479.607 108.484C478.007 105.524 475.847 103.284 473.127 101.764C470.407 100.164 467.487 99.3644 464.367 99.3644C461.247 99.3644 458.367 100.124 455.727 101.644C453.087 103.164 450.927 105.404 449.247 108.364C447.647 111.244 446.847 114.684 446.847 118.684C446.847 122.684 447.647 126.204 449.247 129.244C450.927 132.204 453.087 134.484 455.727 136.084C458.447 137.684 461.327 138.484 464.367 138.484C467.487 138.484 470.407 137.724 473.127 136.204C475.847 134.604 478.007 132.364 479.607 129.484C481.207 126.524 482.007 123.004 482.007 118.924Z" fill="black"/>
<path d="M534.895 99.4844V131.644C534.895 133.884 535.415 135.524 536.455 136.564C537.575 137.524 539.415 138.004 541.975 138.004H549.775V152.164H539.215C525.055 152.164 517.975 145.284 517.975 131.524V99.4844H510.055V85.6844H517.975V69.2444H534.895V85.6844H549.775V99.4844H534.895Z" fill="black"/>
<path d="M623.658 117.484C623.658 119.884 623.498 122.044 623.178 123.964H574.578C574.978 128.764 576.658 132.524 579.618 135.244C582.578 137.964 586.218 139.324 590.538 139.324C596.778 139.324 601.218 136.644 603.858 131.284H621.978C620.058 137.684 616.378 142.964 610.938 147.124C605.498 151.204 598.818 153.244 590.898 153.244C584.498 153.244 578.738 151.844 573.618 149.044C568.578 146.164 564.618 142.124 561.738 136.924C558.938 131.724 557.538 125.724 557.538 118.924C557.538 112.044 558.938 106.004 561.738 100.804C564.538 95.6044 568.458 91.6044 573.498 88.8044C578.538 86.0044 584.338 84.6044 590.898 84.6044C597.218 84.6044 602.858 85.9644 607.818 88.6844C612.858 91.4044 616.738 95.2844 619.458 100.324C622.258 105.284 623.658 111.004 623.658 117.484ZM606.258 112.684C606.178 108.364 604.618 104.924 601.578 102.364C598.538 99.7244 594.818 98.4044 590.418 98.4044C586.258 98.4044 582.738 99.6844 579.858 102.244C577.058 104.724 575.338 108.204 574.698 112.684H606.258Z" fill="black"/>
<path d="M301.92 152.164H285.12L247.08 94.6844V152.164H230.28V68.2844H247.08L285.12 125.884V68.2844H301.92V152.164Z" fill="#DF0000"/>
</svg>
